<svg xmlns="http://www.w3.org/2000/svg" width="36" height="36" viewBox="0 0 36 36" fill="none">
	<g transform="translate(-60)">
		<path d="M95.344 18C95.344 27.9411 87.2851 36 77.344 36C67.4028 36 59.344 27.9411 59.344 18C59.344 8.05888 67.4028 0 77.344 0C87.2851 0 95.344 8.05888 95.344 18Z" fill="black"/>
		<path d="M84.5152 26.4H79.6512V18.8224C79.6512 18.1568 79.4976 17.6789 79.1904 17.3888C78.9002 17.0816 78.5333 16.928 78.0896 16.928C77.8848 16.928 77.6288 17.0048 77.3216 17.1584C77.0314 17.312 76.7498 17.5339 76.4768 17.824C76.2037 18.1141 75.9904 18.4555 75.8368 18.848V26.4H70.9728V7.712H75.8368V14.9312C76.3146 14.1973 76.9376 13.6427 77.7056 13.2672C78.4906 12.8747 79.3525 12.6784 80.2912 12.6784C81.2469 12.6784 82.0064 12.8405 82.5696 13.1648C83.1328 13.472 83.5509 13.8731 83.824 14.368C84.097 14.8629 84.2762 15.392 84.3616 15.9552C84.464 16.5184 84.5152 17.0475 84.5152 17.5424V26.4Z" fill="white"/>
	</g>
</svg>